<?xml version="1.0" encoding="UTF-8" standalone="no"?>
<!DOCTYPE svg PUBLIC "-//W3C//DTD SVG 1.1//EN"
 "http://www.w3.org/Graphics/SVG/1.1/DTD/svg11.dtd">
<!-- Generated by graphviz version 9.0.0 (20230911.1827)
 -->
<!-- Pages: 1 -->
<svg width="88pt" height="301pt"
 viewBox="0.00 0.00 87.50 300.50" xmlns="http://www.w3.org/2000/svg" xmlns:xlink="http://www.w3.org/1999/xlink">
<g id="graph0" class="graph" transform="scale(1 1) rotate(0) translate(4 296.5)">
<polygon fill="white" stroke="none" points="-4,4 -4,-296.5 83.5,-296.5 83.5,4 -4,4"/>
<!-- fake -->
<g id="node1" class="node">
<title>fake</title>
</g>
<!-- 1 -->
<g id="node3" class="node">
<title>1</title>
<ellipse fill="none" stroke="black" cx="27" cy="-201.5" rx="27" ry="18"/>
<text text-anchor="middle" x="27" y="-196.07" font-family="Times New Roman,serif" font-size="14.00">1</text>
</g>
<!-- fake&#45;&gt;1 -->
<g id="edge1" class="edge">
<title>fake&#45;&gt;1</title>
<path fill="none" stroke="black" stroke-width="2" d="M27,-256.31C27,-248.73 27,-239.6 27,-231.04"/>
<polygon fill="black" stroke="black" stroke-width="2" points="30.5,-232.56 27,-222.56 23.5,-232.56 30.5,-232.56"/>
</g>
<!-- 0 -->
<g id="node2" class="node">
<title>0</title>
<ellipse fill="none" stroke="black" cx="27" cy="-113.75" rx="27" ry="18"/>
<text text-anchor="middle" x="27" y="-108.33" font-family="Times New Roman,serif" font-size="14.00">0</text>
</g>
<!-- 0&#45;&gt;0 -->
<g id="edge6" class="edge">
<title>0&#45;&gt;0</title>
<path fill="none" stroke="black" d="M51.53,-121.85C62.51,-122.62 72,-119.92 72,-113.75 72,-109.89 68.29,-107.39 62.83,-106.25"/>
<polygon fill="black" stroke="black" points="63.21,-102.76 53.04,-105.73 62.85,-109.75 63.21,-102.76"/>
<text text-anchor="middle" x="75" y="-108.33" font-family="Times New Roman,serif" font-size="14.00">a</text>
</g>
<!-- 0&#45;&gt;1 -->
<g id="edge2" class="edge">
<title>0&#45;&gt;1</title>
<path fill="none" stroke="black" d="M27,-132.08C27,-143.46 27,-158.63 27,-171.79"/>
<polygon fill="black" stroke="black" points="23.5,-171.63 27,-181.63 30.5,-171.63 23.5,-171.63"/>
<text text-anchor="middle" x="30.75" y="-152.2" font-family="Times New Roman,serif" font-size="14.00">b</text>
</g>
<!-- 3 -->
<g id="node4" class="node">
<title>3</title>
<ellipse fill="none" stroke="black" cx="27" cy="-22" rx="18" ry="18"/>
<ellipse fill="none" stroke="black" cx="27" cy="-22" rx="22" ry="22"/>
<text text-anchor="middle" x="27" y="-16.57" font-family="Times New Roman,serif" font-size="14.00">3</text>
</g>
<!-- 0&#45;&gt;3 -->
<g id="edge5" class="edge">
<title>0&#45;&gt;3</title>
<path fill="none" stroke="black" d="M27,-95.45C27,-84.18 27,-69.12 27,-55.66"/>
<polygon fill="black" stroke="black" points="30.5,-55.88 27,-45.88 23.5,-55.88 30.5,-55.88"/>
<text text-anchor="middle" x="30.38" y="-64.45" font-family="Times New Roman,serif" font-size="14.00">c</text>
</g>
<!-- 1&#45;&gt;0 -->
<g id="edge7" class="edge">
<title>1&#45;&gt;0</title>
<path fill="none" stroke="black" d="M21.15,-183.61C19.46,-177.93 17.84,-171.51 17,-165.5 15.95,-158.03 16.67,-150 18.11,-142.58"/>
<polygon fill="black" stroke="black" points="21.46,-143.6 20.44,-133.06 14.66,-141.93 21.46,-143.6"/>
<text text-anchor="middle" x="20" y="-152.2" font-family="Times New Roman,serif" font-size="14.00">a</text>
</g>
<!-- 1&#45;&gt;1 -->
<g id="edge4" class="edge">
<title>1&#45;&gt;1</title>
<path fill="none" stroke="black" d="M52.44,-208.28C63.03,-208.75 72,-206.49 72,-201.5 72,-198.46 68.67,-196.43 63.67,-195.42"/>
<polygon fill="black" stroke="black" points="64.15,-191.94 53.95,-194.81 63.72,-198.93 64.15,-191.94"/>
<text text-anchor="middle" x="75.75" y="-196.07" font-family="Times New Roman,serif" font-size="14.00">b</text>
</g>
<!-- 3&#45;&gt;3 -->
<g id="edge3" class="edge">
<title>3&#45;&gt;3</title>
<path fill="none" stroke="black" d="M47.58,-30.71C57.84,-31.92 67,-29.01 67,-22 67,-17.84 63.77,-15.12 59,-13.85"/>
<polygon fill="black" stroke="black" points="59.25,-10.36 49.09,-13.36 58.91,-17.35 59.25,-10.36"/>
<text text-anchor="middle" x="70.38" y="-16.57" font-family="Times New Roman,serif" font-size="14.00">c</text>
</g>
</g>
</svg>
